<svg version="1.1" xmlns="http://www.w3.org/2000/svg" xmlns:xlink="http://www.w3.org/1999/xlink" width="1416.000000pt" height="704.000000pt" viewBox="0,0,255.98738,127.27152"><g fill="#ffffff" fill-rule="nonzero" stroke="none" stroke-width="1" stroke-linecap="butt" stroke-linejoin="miter" stroke-miterlimit="10" stroke-dasharray="" stroke-dashoffset="0" font-family="none" font-weight="none" font-size="none" text-anchor="none" style="mix-blend-mode: normal"><g transform="translate(-4.88767,-0.36424) scale(0.18079,0.18079)"><g transform="translate(0,704) scale(0.1,-0.1)"><path d="M1700,6530c0,-6 -37,-10 -90,-10c-53,0 -90,-4 -90,-10c0,-5 -18,-10 -40,-10c-22,0 -40,-4 -40,-10c0,-5 -13,-10 -30,-10c-16,0 -30,-4 -30,-10c0,-5 -9,-10 -20,-10c-11,0 -20,-4 -20,-10c0,-5 -8,-10 -18,-10c-10,0 -24,-9 -32,-20c-8,-11 -20,-20 -27,-20c-19,0 -183,-166 -183,-185c0,-8 -4,-15 -10,-15c-5,0 -10,-9 -10,-20c0,-11 -4,-20 -10,-20c-5,0 -10,-9 -10,-20c0,-11 -4,-20 -10,-20c-5,0 -10,-9 -10,-20c0,-11 -4,-20 -10,-20c-5,0 -10,-13 -10,-30c0,-16 -4,-30 -10,-30c-5,0 -10,-18 -10,-40c0,-22 -4,-40 -10,-40c-6,0 -10,-27 -10,-60c0,-33 -4,-60 -10,-60c-7,0 -10,-370 -10,-1090c0,-720 3,-1090 10,-1090c6,0 10,-22 10,-50c0,-27 5,-50 10,-50c6,0 10,-22 10,-50c0,-27 5,-50 10,-50c6,0 10,-9 10,-20c0,-11 5,-20 10,-20c6,0 10,-13 10,-30c0,-16 5,-30 10,-30c6,0 10,-9 10,-20c0,-11 5,-20 10,-20c6,0 10,-8 10,-18c0,-10 9,-24 20,-32c11,-8 20,-20 20,-27c0,-17 146,-163 163,-163c7,0 19,-9 27,-20c8,-11 22,-20 32,-20c10,0 18,-4 18,-10c0,-5 9,-10 20,-10c11,0 20,-4 20,-10c0,-5 14,-10 30,-10c17,0 30,-4 30,-10c0,-5 23,-10 50,-10c28,0 50,-4 50,-10c0,-6 70,-10 190,-10c120,0 190,4 190,10c0,6 23,10 50,10c28,0 50,5 50,10c0,6 14,10 30,10c17,0 30,5 30,10c0,6 9,10 20,10c11,0 20,5 20,10c0,6 9,10 20,10c11,0 20,5 20,10c0,6 7,10 16,10c9,0 29,14 44,30c15,17 33,30 39,30c16,0 81,66 81,82c0,8 9,20 20,28c11,8 20,22 20,32c0,10 5,18 10,18c6,0 10,9 10,20c0,11 5,20 10,20c6,0 10,9 10,20c0,11 5,20 10,20c6,0 10,9 10,20c0,11 5,20 10,20c6,0 10,14 10,30c0,17 5,30 10,30c6,0 10,14 10,30c0,17 5,30 10,30c6,0 10,23 10,50c0,28 5,50 10,50c6,0 10,117 10,330v330h-180h-180v-270c0,-173 -4,-270 -10,-270c-6,0 -10,-30 -10,-70c0,-40 -4,-70 -10,-70c-5,0 -10,-13 -10,-30c0,-16 -4,-30 -10,-30c-5,0 -10,-9 -10,-20c0,-11 -4,-20 -10,-20c-5,0 -10,-7 -10,-15c0,-20 -105,-125 -125,-125c-8,0 -15,-4 -15,-10c0,-5 -13,-10 -30,-10c-16,0 -30,-4 -30,-10c0,-6 -53,-10 -140,-10c-87,0 -140,4 -140,10c0,6 -13,10 -30,10c-16,0 -30,5 -30,10c0,6 -7,10 -15,10c-19,0 -105,84 -105,103c0,7 -9,19 -20,27c-12,8 -20,26 -20,42c0,15 -4,28 -10,28c-5,0 -10,14 -10,30c0,17 -4,30 -10,30c-6,0 -10,30 -10,70c0,40 -4,70 -10,70c-7,0 -10,337 -10,990c0,653 3,990 10,990c6,0 10,30 10,70c0,40 4,70 10,70c6,0 10,14 10,30c0,17 5,30 10,30c6,0 10,14 10,30c0,17 5,30 10,30c6,0 10,7 10,15c0,20 105,125 125,125c8,0 15,5 15,10c0,6 9,10 20,10c11,0 20,5 20,10c0,6 23,10 50,10c28,0 50,5 50,10c0,6 27,10 60,10c33,0 60,-4 60,-10c0,-5 23,-10 50,-10c28,0 50,-4 50,-10c0,-5 9,-10 20,-10c11,0 20,-4 20,-10c0,-5 7,-10 15,-10c20,0 125,-105 125,-125c0,-8 5,-15 10,-15c6,0 10,-9 10,-20c0,-11 5,-20 10,-20c6,0 10,-13 10,-30c0,-16 5,-30 10,-30c6,0 10,-30 10,-70c0,-40 4,-70 10,-70c6,0 10,-77 10,-210v-210h180h180v270c0,173 -4,270 -10,270c-5,0 -10,23 -10,50c0,28 -4,50 -10,50c-5,0 -10,18 -10,40c0,22 -4,40 -10,40c-5,0 -10,9 -10,20c0,11 -4,20 -10,20c-5,0 -10,13 -10,28c0,16 -8,34 -20,42c-11,8 -20,22 -20,32c0,10 -4,18 -10,18c-5,0 -10,8 -10,18c0,10 -9,24 -20,32c-11,8 -20,20 -20,27c0,17 -86,103 -103,103c-7,0 -19,9 -27,20c-8,11 -22,20 -32,20c-10,0 -18,5 -18,10c0,6 -9,10 -20,10c-11,0 -20,5 -20,10c0,6 -9,10 -20,10c-11,0 -20,5 -20,10c0,6 -13,10 -30,10c-16,0 -30,5 -30,10c0,6 -18,10 -40,10c-22,0 -40,5 -40,10c0,6 -37,10 -90,10c-53,0 -90,4 -90,10c0,6 -13,10 -30,10c-16,0 -30,-4 -30,-10z"></path><path d="M4000,6530c0,-6 -40,-10 -100,-10c-60,0 -100,-4 -100,-10c0,-5 -18,-10 -40,-10c-22,0 -40,-4 -40,-10c0,-5 -9,-10 -20,-10c-11,0 -20,-4 -20,-10c0,-5 -13,-10 -30,-10c-16,0 -30,-4 -30,-10c0,-5 -8,-10 -18,-10c-10,0 -24,-9 -32,-20c-8,-11 -20,-20 -27,-20c-17,0 -143,-126 -143,-143c0,-7 -9,-19 -20,-27c-11,-8 -20,-21 -20,-30c0,-9 -9,-22 -20,-30c-11,-8 -20,-22 -20,-32c0,-10 -4,-18 -10,-18c-5,0 -10,-13 -10,-30c0,-16 -4,-30 -10,-30c-5,0 -10,-13 -10,-30c0,-16 -4,-30 -10,-30c-5,0 -10,-18 -10,-40c0,-22 -4,-40 -10,-40c-6,0 -10,-27 -10,-60c0,-33 -4,-60 -10,-60c-7,0 -10,-363 -10,-1070c0,-707 3,-1070 10,-1070c6,0 10,-27 10,-60c0,-33 4,-60 10,-60c6,0 10,-18 10,-40c0,-22 5,-40 10,-40c6,0 10,-13 10,-30c0,-16 5,-30 10,-30c6,0 10,-9 10,-20c0,-11 5,-20 10,-20c6,0 10,-9 10,-20c0,-11 5,-20 10,-20c6,0 10,-9 10,-20c0,-11 5,-20 10,-20c6,0 10,-8 10,-18c0,-10 9,-24 20,-32c11,-8 20,-20 20,-27c0,-17 106,-123 123,-123c7,0 19,-9 27,-20c8,-11 22,-20 32,-20c10,0 18,-4 18,-10c0,-5 9,-10 20,-10c11,0 20,-4 20,-10c0,-5 9,-10 20,-10c11,0 20,-4 20,-10c0,-5 14,-10 30,-10c17,0 30,-4 30,-10c0,-5 23,-10 50,-10c28,0 50,-4 50,-10c0,-6 70,-10 190,-10c120,0 190,4 190,10c0,6 23,10 50,10c28,0 50,5 50,10c0,6 14,10 30,10c17,0 30,5 30,10c0,6 9,10 20,10c11,0 20,5 20,10c0,6 9,10 20,10c11,0 20,5 20,10c0,6 8,10 18,10c10,0 24,9 32,20c8,11 20,20 27,20c17,0 123,106 123,123c0,7 9,19 20,27c11,8 20,22 20,32c0,10 5,18 10,18c6,0 10,9 10,20c0,11 5,20 10,20c6,0 10,9 10,20c0,11 5,20 10,20c6,0 10,9 10,20c0,11 5,20 10,20c6,0 10,14 10,30c0,17 5,30 10,30c6,0 10,18 10,40c0,22 5,40 10,40c6,0 10,27 10,60c0,33 4,60 10,60c7,0 10,363 10,1070c0,707 -3,1070 -10,1070c-6,0 -10,27 -10,60c0,33 -4,60 -10,60c-5,0 -10,18 -10,40c0,22 -4,40 -10,40c-5,0 -10,14 -10,30c0,17 -4,30 -10,30c-5,0 -10,13 -10,28c0,16 -8,34 -20,42c-11,8 -20,22 -20,32c0,10 -4,18 -10,18c-5,0 -10,8 -10,18c0,10 -9,24 -20,32c-11,8 -20,20 -20,27c0,17 -106,123 -123,123c-7,0 -19,9 -27,20c-8,11 -22,20 -32,20c-10,0 -18,5 -18,10c0,6 -9,10 -20,10c-11,0 -20,5 -20,10c0,6 -9,10 -20,10c-11,0 -20,5 -20,10c0,6 -13,10 -30,10c-16,0 -30,5 -30,10c0,6 -13,10 -30,10c-16,0 -30,5 -30,10c0,6 -43,10 -110,10c-67,0 -110,4 -110,10c0,6 -9,10 -20,10c-11,0 -20,-4 -20,-10zM4100,6170c0,-5 18,-10 40,-10c22,0 40,-4 40,-10c0,-5 13,-10 28,-10c16,0 34,-8 42,-20c8,-11 20,-20 28,-20c18,0 82,-66 82,-85c0,-8 5,-15 10,-15c6,0 10,-9 10,-20c0,-11 5,-20 10,-20c6,0 10,-9 10,-20c0,-11 5,-20 10,-20c6,0 10,-18 10,-40c0,-22 5,-40 10,-40c7,0 10,-377 10,-1110c0,-733 -3,-1110 -10,-1110c-5,0 -10,-13 -10,-30c0,-16 -4,-30 -10,-30c-5,0 -10,-13 -10,-30c0,-16 -4,-30 -10,-30c-5,0 -10,-8 -10,-18c0,-10 -9,-24 -20,-32c-11,-8 -20,-20 -20,-28c0,-18 -46,-62 -65,-62c-8,0 -15,-4 -15,-10c0,-5 -9,-10 -20,-10c-11,0 -20,-4 -20,-10c0,-5 -9,-10 -20,-10c-11,0 -20,-4 -20,-10c0,-6 -57,-10 -150,-10c-93,0 -150,4 -150,10c0,6 -9,10 -20,10c-11,0 -20,5 -20,10c0,6 -9,10 -20,10c-11,0 -20,5 -20,10c0,6 -7,10 -15,10c-20,0 -85,65 -85,85c0,8 -4,15 -10,15c-5,0 -10,9 -10,20c0,11 -4,20 -10,20c-5,0 -10,9 -10,20c0,11 -4,20 -10,20c-5,0 -10,18 -10,40c0,22 -4,40 -10,40c-6,0 -10,33 -10,80c0,47 -4,80 -10,80c-7,0 -10,323 -10,950c0,627 3,950 10,950c6,0 10,33 10,80c0,47 4,80 10,80c6,0 10,18 10,40c0,22 5,40 10,40c6,0 10,9 10,20c0,11 5,20 10,20c6,0 10,9 10,20c0,11 5,20 10,20c6,0 10,7 10,15c0,19 64,85 82,85c8,0 20,9 28,20c8,12 26,20 42,20c15,0 28,5 28,10c0,6 18,10 40,10c22,0 40,5 40,10c0,6 30,10 70,10c40,0 70,-4 70,-10z"></path><path d="M5580,6320v-180h570h570v-30c0,-16 -4,-30 -10,-30c-5,0 -10,-9 -10,-20c0,-11 -4,-20 -10,-20c-5,0 -10,-9 -10,-20c0,-11 -4,-20 -10,-20c-5,0 -10,-13 -10,-30c0,-16 -4,-30 -10,-30c-5,0 -10,-9 -10,-20c0,-11 -4,-20 -10,-20c-5,0 -10,-9 -10,-20c0,-11 -4,-20 -10,-20c-5,0 -10,-13 -10,-30c0,-16 -4,-30 -10,-30c-5,0 -10,-9 -10,-20c0,-11 -4,-20 -10,-20c-5,0 -10,-9 -10,-20c0,-11 -4,-20 -10,-20c-5,0 -10,-13 -10,-30c0,-16 -4,-30 -10,-30c-5,0 -10,-9 -10,-20c0,-11 -4,-20 -10,-20c-5,0 -10,-9 -10,-20c0,-11 -4,-20 -10,-20c-5,0 -10,-13 -10,-30c0,-16 -4,-30 -10,-30c-5,0 -10,-9 -10,-20c0,-11 -4,-20 -10,-20c-5,0 -10,-9 -10,-20c0,-11 -4,-20 -10,-20c-5,0 -10,-13 -10,-30c0,-16 -4,-30 -10,-30c-5,0 -10,-9 -10,-20c0,-11 -4,-20 -10,-20c-5,0 -10,-9 -10,-20c0,-11 -4,-20 -10,-20c-5,0 -10,-13 -10,-30c0,-16 -4,-30 -10,-30c-5,0 -10,-9 -10,-20c0,-11 -4,-20 -10,-20c-5,0 -10,-9 -10,-20c0,-11 -4,-20 -10,-20c-5,0 -10,-13 -10,-30c0,-16 -4,-30 -10,-30c-5,0 -10,-9 -10,-20c0,-11 -4,-20 -10,-20c-5,0 -10,-9 -10,-20c0,-11 -4,-20 -10,-20c-5,0 -10,-13 -10,-30c0,-16 -4,-30 -10,-30c-5,0 -10,-9 -10,-20c0,-11 -4,-20 -10,-20c-5,0 -10,-9 -10,-20c0,-11 -4,-20 -10,-20c-5,0 -10,-13 -10,-30c0,-16 -4,-30 -10,-30c-5,0 -10,-9 -10,-20c0,-11 -4,-20 -10,-20c-5,0 -10,-9 -10,-20c0,-11 -4,-20 -10,-20c-5,0 -10,-13 -10,-30c0,-16 -4,-30 -10,-30c-5,0 -10,-9 -10,-20c0,-11 -4,-20 -10,-20c-5,0 -10,-9 -10,-20c0,-11 -4,-20 -10,-20c-5,0 -10,-13 -10,-30c0,-16 -4,-30 -10,-30c-5,0 -10,-9 -10,-20c0,-11 -4,-20 -10,-20c-5,0 -10,-9 -10,-20c0,-11 -4,-20 -10,-20c-5,0 -10,-13 -10,-30c0,-16 -4,-30 -10,-30c-5,0 -10,-9 -10,-20c0,-11 -4,-20 -10,-20c-5,0 -10,-9 -10,-20c0,-11 -4,-20 -10,-20c-5,0 -10,-13 -10,-30c0,-16 -4,-30 -10,-30c-5,0 -10,-9 -10,-20c0,-11 -4,-20 -10,-20c-5,0 -10,-9 -10,-20c0,-11 -4,-20 -10,-20c-5,0 -10,-13 -10,-30c0,-16 -4,-30 -10,-30c-5,0 -10,-9 -10,-20c0,-11 -4,-20 -10,-20c-5,0 -10,-9 -10,-20c0,-11 -4,-20 -10,-20c-5,0 -10,-13 -10,-30c0,-16 -4,-30 -10,-30c-5,0 -10,-9 -10,-20c0,-11 -4,-20 -10,-20c-5,0 -10,-9 -10,-20c0,-11 -4,-20 -10,-20c-5,0 -10,-13 -10,-30c0,-16 -4,-30 -10,-30c-5,0 -10,-9 -10,-20c0,-11 -4,-20 -10,-20c-5,0 -10,-9 -10,-20c0,-11 -4,-20 -10,-20c-5,0 -10,-13 -10,-30c0,-16 -4,-30 -10,-30c-5,0 -10,-9 -10,-20c0,-11 -4,-20 -10,-20c-5,0 -10,-9 -10,-20c0,-11 -4,-20 -10,-20c-5,0 -10,-13 -10,-30c0,-16 -4,-30 -10,-30c-5,0 -10,-9 -10,-20c0,-11 -4,-20 -10,-20c-5,0 -10,-9 -10,-20c0,-11 -4,-20 -10,-20c-5,0 -10,-13 -10,-30c0,-16 -4,-30 -10,-30c-5,0 -10,-9 -10,-20c0,-11 -4,-20 -10,-20c-5,0 -10,-9 -10,-20c0,-11 -4,-20 -10,-20c-6,0 -10,-65 -10,-176c0,-139 3,-178 14,-190c12,-12 133,-14 800,-14h786v180v180h-590h-590v30c0,17 5,30 10,30c6,0 10,14 10,30c0,17 5,30 10,30c6,0 10,9 10,20c0,11 5,20 10,20c6,0 10,9 10,20c0,11 5,20 10,20c6,0 10,14 10,30c0,17 5,30 10,30c6,0 10,9 10,20c0,11 5,20 10,20c6,0 10,9 10,20c0,11 5,20 10,20c6,0 10,14 10,30c0,17 5,30 10,30c6,0 10,9 10,20c0,11 5,20 10,20c6,0 10,9 10,20c0,11 5,20 10,20c6,0 10,14 10,30c0,17 5,30 10,30c6,0 10,9 10,20c0,11 5,20 10,20c6,0 10,9 10,20c0,11 5,20 10,20c6,0 10,14 10,30c0,17 5,30 10,30c6,0 10,9 10,20c0,11 5,20 10,20c6,0 10,9 10,20c0,11 5,20 10,20c6,0 10,14 10,30c0,17 5,30 10,30c6,0 10,9 10,20c0,11 5,20 10,20c6,0 10,9 10,20c0,11 5,20 10,20c6,0 10,14 10,30c0,17 5,30 10,30c6,0 10,9 10,20c0,11 5,20 10,20c6,0 10,9 10,20c0,11 5,20 10,20c6,0 10,14 10,30c0,17 5,30 10,30c6,0 10,9 10,20c0,11 5,20 10,20c6,0 10,9 10,20c0,11 5,20 10,20c6,0 10,14 10,30c0,17 5,30 10,30c6,0 10,9 10,20c0,11 5,20 10,20c6,0 10,9 10,20c0,11 5,20 10,20c6,0 10,14 10,30c0,17 5,30 10,30c6,0 10,9 10,20c0,11 5,20 10,20c6,0 10,9 10,20c0,11 5,20 10,20c6,0 10,9 10,20c0,11 5,20 10,20c6,0 10,14 10,30c0,17 5,30 10,30c6,0 10,9 10,20c0,11 5,20 10,20c6,0 10,9 10,20c0,11 5,20 10,20c6,0 10,14 10,30c0,17 5,30 10,30c6,0 10,9 10,20c0,11 5,20 10,20c6,0 10,9 10,20c0,11 5,20 10,20c6,0 10,14 10,30c0,17 5,30 10,30c6,0 10,9 10,20c0,11 5,20 10,20c6,0 10,9 10,20c0,11 5,20 10,20c6,0 10,14 10,30c0,17 5,30 10,30c6,0 10,9 10,20c0,11 5,20 10,20c6,0 10,9 10,20c0,11 5,20 10,20c6,0 10,14 10,30c0,17 5,30 10,30c6,0 10,9 10,20c0,11 5,20 10,20c6,0 10,9 10,20c0,11 5,20 10,20c6,0 10,14 10,30c0,17 5,30 10,30c6,0 10,9 10,20c0,11 5,20 10,20c6,0 10,9 10,20c0,11 5,20 10,20c6,0 10,14 10,30c0,17 5,30 10,30c6,0 10,9 10,20c0,11 5,20 10,20c6,0 10,9 10,20c0,11 5,20 10,20c6,0 10,14 10,30c0,17 5,30 10,30c6,0 10,9 10,20c0,11 5,20 10,20c6,0 10,9 10,20c0,11 5,20 10,20c6,0 10,14 10,30c0,17 5,30 10,30c6,0 10,9 10,20c0,11 5,20 10,20c6,0 10,9 10,20c0,11 5,20 10,20c6,0 10,14 10,30c0,17 5,30 10,30c6,0 10,67 10,180v180h-780h-780z"></path><path d="M7740,6470c0,-16 5,-30 10,-30c6,0 10,-13 10,-30c0,-16 5,-30 10,-30c6,0 10,-13 10,-30c0,-16 5,-30 10,-30c6,0 10,-13 10,-30c0,-16 5,-30 10,-30c6,0 10,-13 10,-30c0,-16 5,-30 10,-30c6,0 10,-13 10,-30c0,-16 5,-30 10,-30c6,0 10,-13 10,-30c0,-16 5,-30 10,-30c6,0 10,-13 10,-30c0,-16 5,-30 10,-30c6,0 10,-13 10,-30c0,-16 5,-30 10,-30c6,0 10,-13 10,-30c0,-16 5,-30 10,-30c6,0 10,-13 10,-30c0,-16 5,-30 10,-30c6,0 10,-13 10,-30c0,-16 5,-30 10,-30c6,0 10,-13 10,-30c0,-16 5,-30 10,-30c6,0 10,-13 10,-30c0,-16 5,-30 10,-30c6,0 10,-13 10,-30c0,-16 5,-30 10,-30c6,0 10,-13 10,-30c0,-16 5,-30 10,-30c6,0 10,-13 10,-30c0,-16 5,-30 10,-30c6,0 10,-13 10,-30c0,-16 5,-30 10,-30c6,0 10,-13 10,-30c0,-16 5,-30 10,-30c6,0 10,-13 10,-30c0,-16 5,-30 10,-30c6,0 10,-13 10,-30c0,-16 5,-30 10,-30c6,0 10,-13 10,-30c0,-16 5,-30 10,-30c6,0 10,-13 10,-30c0,-16 5,-30 10,-30c6,0 10,-13 10,-30c0,-16 5,-30 10,-30c6,0 10,-13 10,-30c0,-16 5,-30 10,-30c6,0 10,-13 10,-30c0,-16 5,-30 10,-30c6,0 10,-13 10,-30c0,-16 5,-30 10,-30c6,0 10,-18 10,-40c0,-22 5,-40 10,-40c6,0 10,-13 10,-30c0,-16 5,-30 10,-30c6,0 10,-13 10,-30c0,-16 5,-30 10,-30c6,0 10,-13 10,-30c0,-16 5,-30 10,-30c6,0 10,-13 10,-30c0,-16 5,-30 10,-30c6,0 10,-13 10,-30c0,-16 5,-30 10,-30c6,0 10,-13 10,-30c0,-16 5,-30 10,-30c6,0 10,-13 10,-30c0,-16 5,-30 10,-30c6,0 10,-13 10,-30c0,-16 5,-30 10,-30c6,0 10,-13 10,-30c0,-16 5,-30 10,-30c7,0 10,-223 10,-650v-650h190h190v640c0,420 3,640 10,640c6,0 10,14 10,30c0,17 5,30 10,30c6,0 10,14 10,30c0,17 5,30 10,30c6,0 10,14 10,30c0,17 5,30 10,30c6,0 10,14 10,30c0,17 5,30 10,30c6,0 10,14 10,30c0,17 5,30 10,30c6,0 10,14 10,30c0,17 5,30 10,30c6,0 10,14 10,30c0,17 5,30 10,30c6,0 10,14 10,30c0,17 5,30 10,30c6,0 10,14 10,30c0,17 5,30 10,30c6,0 10,14 10,30c0,17 5,30 10,30c6,0 10,14 10,30c0,17 5,30 10,30c6,0 10,14 10,30c0,17 5,30 10,30c6,0 10,14 10,30c0,17 5,30 10,30c6,0 10,14 10,30c0,17 5,30 10,30c6,0 10,14 10,30c0,17 5,30 10,30c6,0 10,14 10,30c0,17 5,30 10,30c6,0 10,14 10,30c0,17 5,30 10,30c6,0 10,14 10,30c0,17 5,30 10,30c6,0 10,14 10,30c0,17 5,30 10,30c6,0 10,14 10,30c0,17 5,30 10,30c6,0 10,14 10,30c0,17 5,30 10,30c6,0 10,14 10,30c0,17 5,30 10,30c6,0 10,14 10,30c0,17 5,30 10,30c6,0 10,14 10,30c0,17 5,30 10,30c6,0 10,14 10,30c0,17 5,30 10,30c6,0 10,14 10,30c0,17 5,30 10,30c6,0 10,14 10,30c0,17 5,30 10,30c6,0 10,14 10,30c0,17 5,30 10,30c6,0 10,18 10,40c0,22 5,40 10,40c6,0 10,14 10,30c0,17 5,30 10,30c6,0 10,14 10,30c0,17 5,30 10,30c6,0 10,14 10,30c0,17 5,30 10,30c6,0 10,14 10,30c0,17 5,30 10,30c6,0 10,14 10,30c0,17 5,30 10,30c6,0 10,14 10,30c0,17 5,30 10,30c6,0 10,14 10,30c0,17 5,30 10,30c6,0 10,14 10,30c0,17 5,30 10,30c6,0 10,5 10,10c0,6 -70,10 -190,10h-190v-30c0,-16 -4,-30 -10,-30c-5,0 -10,-13 -10,-30c0,-16 -4,-30 -10,-30c-5,0 -10,-13 -10,-30c0,-16 -4,-30 -10,-30c-5,0 -10,-13 -10,-30c0,-16 -4,-30 -10,-30c-5,0 -10,-13 -10,-30c0,-16 -4,-30 -10,-30c-5,0 -10,-13 -10,-30c0,-16 -4,-30 -10,-30c-5,0 -10,-13 -10,-30c0,-16 -4,-30 -10,-30c-5,0 -10,-18 -10,-40c0,-22 -4,-40 -10,-40c-5,0 -10,-13 -10,-30c0,-16 -4,-30 -10,-30c-5,0 -10,-13 -10,-30c0,-16 -4,-30 -10,-30c-5,0 -10,-13 -10,-30c0,-16 -4,-30 -10,-30c-5,0 -10,-13 -10,-30c0,-16 -4,-30 -10,-30c-5,0 -10,-13 -10,-30c0,-16 -4,-30 -10,-30c-5,0 -10,-13 -10,-30c0,-16 -4,-30 -10,-30c-5,0 -10,-18 -10,-40c0,-22 -4,-40 -10,-40c-5,0 -10,-13 -10,-30c0,-16 -4,-30 -10,-30c-5,0 -10,-13 -10,-30c0,-16 -4,-30 -10,-30c-5,0 -10,-13 -10,-30c0,-16 -4,-30 -10,-30c-5,0 -10,-13 -10,-30c0,-16 -4,-30 -10,-30c-5,0 -10,-13 -10,-30c0,-16 -4,-30 -10,-30c-5,0 -10,-13 -10,-30c0,-16 -4,-30 -10,-30c-5,0 -10,-13 -10,-30c0,-16 -4,-30 -10,-30c-5,0 -10,-18 -10,-40c0,-22 -4,-40 -10,-40c-5,0 -10,-13 -10,-30c0,-16 -4,-30 -10,-30c-5,0 -10,-13 -10,-30c0,-16 -4,-30 -10,-30c-5,0 -10,-13 -10,-30c0,-16 -4,-30 -10,-30c-5,0 -10,-13 -10,-30c0,-16 -4,-30 -10,-30c-5,0 -10,-9 -10,-20c0,-11 -4,-20 -10,-20c-5,0 -10,14 -10,30c0,17 -4,30 -10,30c-5,0 -10,14 -10,30c0,17 -4,30 -10,30c-5,0 -10,14 -10,30c0,17 -4,30 -10,30c-5,0 -10,14 -10,30c0,17 -4,30 -10,30c-5,0 -10,14 -10,30c0,17 -4,30 -10,30c-5,0 -10,14 -10,30c0,17 -4,30 -10,30c-5,0 -10,14 -10,30c0,17 -4,30 -10,30c-5,0 -10,18 -10,40c0,22 -4,40 -10,40c-5,0 -10,14 -10,30c0,17 -4,30 -10,30c-5,0 -10,14 -10,30c0,17 -4,30 -10,30c-5,0 -10,14 -10,30c0,17 -4,30 -10,30c-5,0 -10,14 -10,30c0,17 -4,30 -10,30c-5,0 -10,14 -10,30c0,17 -4,30 -10,30c-5,0 -10,18 -10,40c0,22 -4,40 -10,40c-5,0 -10,14 -10,30c0,17 -4,30 -10,30c-5,0 -10,14 -10,30c0,17 -4,30 -10,30c-5,0 -10,14 -10,30c0,17 -4,30 -10,30c-5,0 -10,14 -10,30c0,17 -4,30 -10,30c-5,0 -10,14 -10,30c0,17 -4,30 -10,30c-5,0 -10,18 -10,40c0,22 -4,40 -10,40c-5,0 -10,14 -10,30c0,17 -4,30 -10,30c-5,0 -10,14 -10,30c0,17 -4,30 -10,30c-5,0 -10,14 -10,30c0,17 -4,30 -10,30c-5,0 -10,14 -10,30c0,17 -4,30 -10,30c-5,0 -10,14 -10,30c0,17 -4,30 -10,30c-5,0 -10,18 -10,40c0,22 -4,40 -10,40c-5,0 -10,12 -10,26c0,51 -12,54 -224,54h-196z"></path><path d="M10222,4094l-23,-25l30,-28c17,-16 31,-34 31,-41c0,-7 14,-25 30,-40c17,-15 30,-34 30,-42c0,-7 9,-20 20,-28c11,-8 20,-21 20,-30c0,-9 9,-22 20,-30c11,-8 20,-22 20,-32c0,-10 5,-18 10,-18c6,0 10,-9 10,-20c0,-11 5,-20 10,-20c6,0 10,-9 10,-20c0,-11 5,-20 10,-20c6,0 10,-9 10,-20c0,-11 5,-20 10,-20c6,0 10,-9 10,-20c0,-11 5,-20 10,-20c6,0 10,-13 10,-30c0,-16 5,-30 10,-30c6,0 10,-13 10,-30c0,-16 5,-30 10,-30c6,0 10,-18 10,-40c0,-22 5,-40 10,-40c6,0 10,-60 10,-160c0,-100 -4,-160 -10,-160c-6,0 -10,-27 -10,-60c0,-33 -4,-60 -10,-60c-5,0 -10,-18 -10,-40c0,-22 -4,-40 -10,-40c-5,0 -10,-9 -10,-20c0,-11 -4,-20 -10,-20c-5,0 -10,-13 -10,-30c0,-16 -4,-30 -10,-30c-5,0 -10,-13 -10,-30c0,-16 -4,-30 -10,-30c-5,0 -10,-9 -10,-20c0,-11 -4,-20 -10,-20c-5,0 -10,-9 -10,-20c0,-11 -4,-20 -10,-20c-5,0 -10,-13 -10,-28c0,-16 -8,-34 -20,-42c-11,-8 -20,-21 -20,-30c0,-9 -9,-22 -20,-30c-11,-8 -20,-21 -20,-30c0,-9 -9,-22 -20,-30c-11,-8 -20,-21 -20,-30c0,-9 -9,-22 -20,-30c-11,-8 -20,-21 -20,-30c0,-9 -9,-22 -20,-30c-11,-8 -20,-21 -20,-30c0,-9 -9,-22 -20,-30c-11,-8 -20,-21 -20,-30c0,-9 -9,-22 -20,-30c-11,-8 -20,-21 -20,-28c0,-8 -13,-27 -30,-42c-16,-15 -30,-34 -30,-42c0,-7 -9,-20 -20,-28c-11,-8 -20,-21 -20,-28c0,-8 -13,-27 -30,-42c-16,-15 -30,-31 -30,-34c0,-3 14,-6 30,-6c17,0 30,-4 30,-10c0,-6 80,-10 220,-10c140,0 220,-4 220,-10c0,-6 127,-10 360,-10c233,0 360,-4 360,-10c0,-6 73,-10 200,-10c127,0 200,4 200,10c0,6 97,10 270,10c173,0 270,4 270,10c0,6 47,10 120,10c73,0 120,4 120,10c0,6 37,10 90,10c53,0 90,4 90,10c0,6 27,10 60,10c33,0 60,4 60,10c0,6 23,10 50,10c28,0 50,5 50,10c0,6 14,10 30,10c17,0 30,5 30,10c0,6 18,10 40,10c22,0 40,5 40,10c0,6 9,10 20,10c11,0 20,5 20,10c0,6 9,10 20,10c11,0 20,5 20,10c0,6 7,10 15,10c9,0 31,16 50,35c32,31 35,40 35,90c0,30 -4,55 -10,55c-5,0 -10,9 -10,20c0,11 -4,20 -10,20c-5,0 -10,7 -10,16c0,9 -13,29 -30,44c-16,15 -30,33 -30,39c0,14 -286,301 -300,301c-6,0 -51,41 -100,90c-49,50 -94,90 -100,90c-6,0 -38,27 -70,60c-32,33 -64,60 -70,60c-6,0 -33,23 -60,50c-27,28 -54,50 -60,50c-6,0 -29,18 -50,40c-21,22 -44,40 -50,40c-6,0 -29,18 -50,40c-21,22 -44,40 -50,40c-7,0 -25,14 -40,30c-15,17 -33,30 -40,30c-7,0 -25,14 -40,30c-15,17 -33,30 -40,30c-7,0 -25,14 -40,30c-15,17 -34,30 -42,30c-7,0 -20,9 -28,20c-8,11 -21,20 -30,20c-9,0 -22,9 -30,20c-8,11 -22,20 -32,20c-10,0 -18,5 -18,10c0,6 -8,10 -18,10c-10,0 -24,9 -32,20c-8,11 -21,20 -30,20c-9,0 -22,9 -30,20c-8,11 -22,20 -32,20c-10,0 -18,5 -18,10c0,6 -8,10 -18,10c-10,0 -24,9 -32,20c-8,11 -22,20 -32,20c-10,0 -18,5 -18,10c0,6 -9,10 -20,10c-11,0 -20,5 -20,10c0,6 -9,10 -20,10c-11,0 -20,5 -20,10c0,6 -8,10 -18,10c-10,0 -24,9 -32,20c-8,11 -22,20 -32,20c-10,0 -18,5 -18,10c0,6 -9,10 -20,10c-11,0 -20,5 -20,10c0,6 -9,10 -20,10c-11,0 -20,5 -20,10c0,6 -9,10 -20,10c-11,0 -20,5 -20,10c0,6 -9,10 -20,10c-11,0 -20,5 -20,10c0,6 -13,10 -30,10c-16,0 -30,5 -30,10c0,6 -9,10 -20,10c-11,0 -20,5 -20,10c0,6 -9,10 -20,10c-11,0 -20,5 -20,10c0,6 -9,10 -20,10c-11,0 -20,5 -20,10c0,6 -13,10 -30,10c-16,0 -30,5 -30,10c0,6 -13,10 -30,10c-16,0 -30,5 -30,10c0,6 -13,10 -30,10c-16,0 -30,5 -30,10c0,6 -18,10 -40,10c-22,0 -40,5 -40,10c0,6 -18,10 -40,10c-22,0 -40,5 -40,10c0,6 -30,10 -70,10c-40,0 -70,4 -70,10c0,6 -29,10 -67,9c-59,0 -71,-4 -91,-25z"></path><path d="M7380,2670c0,-6 -30,-10 -70,-10c-40,0 -70,-4 -70,-10c0,-5 -18,-10 -40,-10c-22,0 -40,-4 -40,-10c0,-5 -18,-10 -40,-10c-22,0 -40,-4 -40,-10c0,-5 -18,-10 -40,-10c-22,0 -40,-4 -40,-10c0,-5 -18,-10 -40,-10c-22,0 -40,-4 -40,-10c0,-5 -18,-10 -40,-10c-22,0 -40,-4 -40,-10c0,-5 -18,-10 -40,-10c-22,0 -40,-4 -40,-10c0,-5 -18,-10 -40,-10c-22,0 -40,-4 -40,-10c0,-5 -22,-10 -50,-10c-27,0 -50,-4 -50,-10c0,-6 -37,-10 -90,-10c-53,0 -90,-4 -90,-10c0,-6 -70,-10 -190,-10c-120,0 -190,4 -190,10c0,6 -40,10 -100,10c-60,0 -100,4 -100,10c0,6 -27,10 -60,10c-33,0 -60,4 -60,10c0,6 -18,10 -40,10c-22,0 -40,5 -40,10c0,6 -18,10 -40,10c-22,0 -40,5 -40,10c0,6 -18,10 -40,10c-22,0 -40,5 -40,10c0,6 -18,10 -40,10c-22,0 -40,5 -40,10c0,6 -13,10 -30,10c-16,0 -30,5 -30,10c0,6 -13,10 -30,10c-16,0 -30,-3 -30,-6c0,-10 28,-34 40,-34c7,0 25,-13 40,-30c15,-16 35,-30 44,-30c9,0 16,-4 16,-10c0,-5 9,-10 20,-10c11,0 20,-4 20,-10c0,-5 9,-10 20,-10c11,0 20,-4 20,-10c0,-5 9,-10 20,-10c11,0 20,-4 20,-10c0,-5 9,-10 20,-10c11,0 20,-4 20,-10c0,-5 14,-10 30,-10c17,0 30,-4 30,-10c0,-5 9,-10 20,-10c11,0 20,-4 20,-10c0,-5 14,-10 30,-10c17,0 30,-4 30,-10c0,-5 18,-10 40,-10c22,0 40,-4 40,-10c0,-5 14,-10 30,-10c17,0 30,-4 30,-10c0,-5 23,-10 50,-10c28,0 50,-4 50,-10c0,-6 27,-10 60,-10c33,0 60,-4 60,-10c0,-6 37,-10 90,-10c53,0 90,-4 90,-10c0,-6 63,-10 170,-10c107,0 170,4 170,10c0,6 33,10 80,10c47,0 80,4 80,10c0,6 27,10 60,10c33,0 60,4 60,10c0,6 27,10 60,10c33,0 60,4 60,10c0,6 23,10 50,10c28,0 50,5 50,10c0,6 23,10 50,10c28,0 50,5 50,10c0,6 27,10 60,10c33,0 60,4 60,10c0,6 53,10 140,10c87,0 140,-4 140,-10c0,-6 37,-10 90,-10c53,0 90,-4 90,-10c0,-6 27,-10 60,-10c33,0 60,-4 60,-10c0,-6 27,-10 60,-10c33,0 60,-4 60,-10c0,-5 23,-10 50,-10c28,0 50,-4 50,-10c0,-6 27,-10 60,-10c33,0 60,-4 60,-10c0,-6 27,-10 60,-10c33,0 60,-4 60,-10c0,-5 23,-10 50,-10c28,0 50,-4 50,-10c0,-6 30,-10 70,-10c40,0 70,-4 70,-10c0,-6 33,-10 80,-10c47,0 80,-4 80,-10c0,-6 47,-10 120,-10c73,0 120,-4 120,-10c0,-6 57,-10 150,-10c93,0 150,4 150,10c0,6 37,10 90,10c53,0 90,4 90,10c0,6 27,10 60,10c33,0 60,4 60,10c0,6 23,10 50,10c28,0 50,5 50,10c0,6 14,10 30,10c17,0 30,5 30,10c0,6 18,10 40,10c22,0 40,5 40,10c0,6 14,10 30,10c17,0 30,5 30,10c0,6 9,10 20,10c11,0 20,5 20,10c0,6 12,10 26,10c23,0 54,20 54,34c0,3 -9,6 -20,6c-11,0 -20,-4 -20,-10c0,-6 -40,-10 -100,-10c-60,0 -100,-4 -100,-10c0,-6 -103,-10 -290,-10c-187,0 -290,4 -290,10c0,6 -33,10 -80,10c-47,0 -80,4 -80,10c0,6 -27,10 -60,10c-33,0 -60,4 -60,10c0,6 -27,10 -60,10c-33,0 -60,4 -60,10c0,6 -22,10 -50,10c-27,0 -50,5 -50,10c0,6 -18,10 -40,10c-22,0 -40,5 -40,10c0,6 -18,10 -40,10c-22,0 -40,5 -40,10c0,6 -18,10 -40,10c-22,0 -40,5 -40,10c0,6 -18,10 -40,10c-22,0 -40,5 -40,10c0,6 -18,10 -40,10c-22,0 -40,5 -40,10c0,6 -18,10 -40,10c-22,0 -40,5 -40,10c0,6 -18,10 -40,10c-22,0 -40,5 -40,10c0,6 -22,10 -50,10c-27,0 -50,5 -50,10c0,6 -18,10 -40,10c-22,0 -40,5 -40,10c0,6 -18,10 -40,10c-22,0 -40,5 -40,10c0,6 -22,10 -50,10c-27,0 -50,5 -50,10c0,6 -30,10 -70,10c-40,0 -70,4 -70,10c0,6 -50,10 -130,10c-80,0 -130,-4 -130,-10z"></path><path d="M13420,2250c0,-5 7,-10 15,-10c9,0 31,-16 50,-35c41,-41 48,-91 15,-115c-11,-8 -20,-22 -20,-32c0,-10 -7,-18 -16,-18c-9,0 -29,-13 -44,-30c-15,-16 -35,-30 -44,-30c-9,0 -16,-4 -16,-10c0,-5 -9,-10 -20,-10c-11,0 -20,-4 -20,-10c0,-5 -9,-10 -20,-10c-11,0 -20,-4 -20,-10c0,-5 -9,-10 -20,-10c-11,0 -20,-4 -20,-10c0,-5 -13,-10 -30,-10c-16,0 -30,-4 -30,-10c0,-5 -18,-10 -40,-10c-22,0 -40,-4 -40,-10c0,-5 -13,-10 -30,-10c-16,0 -30,-4 -30,-10c0,-5 -13,-10 -30,-10c-16,0 -30,-4 -30,-10c0,-5 -18,-10 -40,-10c-22,0 -40,-4 -40,-10c0,-5 -13,-10 -30,-10c-16,0 -30,-4 -30,-10c0,-5 -18,-10 -40,-10c-22,0 -40,-4 -40,-10c0,-5 -13,-10 -30,-10c-16,0 -30,-4 -30,-10c0,-5 -18,-10 -40,-10c-22,0 -40,-4 -40,-10c0,-6 40,-10 100,-10c60,0 100,4 100,10c0,6 30,10 70,10c40,0 70,4 70,10c0,6 23,10 50,10c28,0 50,5 50,10c0,6 18,10 40,10c22,0 40,5 40,10c0,6 18,10 40,10c22,0 40,5 40,10c0,6 18,10 40,10c22,0 40,5 40,10c0,6 18,10 40,10c22,0 40,5 40,10c0,6 14,10 30,10c17,0 30,5 30,10c0,6 14,10 30,10c17,0 30,5 30,10c0,6 9,10 20,10c11,0 20,5 20,10c0,6 13,10 28,10c16,0 34,8 42,20c8,11 20,20 27,20c8,0 38,25 68,55c49,48 55,59 55,95c0,48 -35,90 -75,90c-14,0 -25,5 -25,10c0,6 -13,10 -30,10c-16,0 -30,5 -30,10c0,6 -22,10 -50,10c-27,0 -50,5 -50,10c0,6 -18,10 -40,10c-22,0 -40,-4 -40,-10z"></path><path d="M7800,2130c0,-5 -18,-10 -40,-10c-22,0 -40,-4 -40,-10c0,-5 -9,-10 -20,-10c-11,0 -20,-4 -20,-10c0,-6 27,-10 60,-10c33,0 60,-4 60,-10c0,-6 27,-10 60,-10c33,0 60,-4 60,-10c0,-5 18,-10 40,-10c22,0 40,-4 40,-10c0,-5 14,-10 30,-10c17,0 30,-4 30,-10c0,-5 14,-10 30,-10c17,0 30,-4 30,-10c0,-5 9,-10 20,-10c11,0 20,-4 20,-10c0,-5 9,-10 20,-10c11,0 20,-4 20,-10c0,-5 14,-10 30,-10c17,0 30,-4 30,-10c0,-5 9,-10 20,-10c11,0 20,-4 20,-10c0,-5 14,-10 30,-10c17,0 30,-4 30,-10c0,-5 9,-10 20,-10c11,0 20,-4 20,-10c0,-5 14,-10 30,-10c17,0 30,-4 30,-10c0,-5 9,-10 20,-10c11,0 20,-4 20,-10c0,-5 18,-10 40,-10c22,0 40,-4 40,-10c0,-6 27,-10 60,-10c33,0 60,-4 60,-10c0,-6 33,-10 80,-10c47,0 80,-4 80,-10c0,-6 33,-10 80,-10c47,0 80,4 80,10c0,6 33,10 80,10c47,0 80,4 80,10c0,6 18,10 40,10c22,0 40,5 40,10c0,6 14,10 30,10c17,0 30,5 30,10c0,6 14,10 30,10c17,0 30,5 30,10c0,6 9,10 20,10c11,0 20,5 20,10c0,6 9,10 20,10c11,0 20,5 20,10c0,6 -9,10 -20,10c-11,0 -20,-4 -20,-10c0,-6 -83,-10 -230,-10c-147,0 -230,4 -230,10c0,6 -27,10 -60,10c-33,0 -60,4 -60,10c0,6 -18,10 -40,10c-22,0 -40,5 -40,10c0,6 -13,10 -30,10c-16,0 -30,5 -30,10c0,6 -13,10 -30,10c-16,0 -30,5 -30,10c0,6 -13,10 -30,10c-16,0 -30,5 -30,10c0,6 -18,10 -40,10c-22,0 -40,5 -40,10c0,6 -13,10 -30,10c-16,0 -30,5 -30,10c0,6 -18,10 -40,10c-22,0 -40,5 -40,10c0,6 -18,10 -40,10c-22,0 -40,5 -40,10c0,6 -13,10 -30,10c-16,0 -30,5 -30,10c0,6 -18,10 -40,10c-22,0 -40,5 -40,10c0,6 -22,10 -50,10c-27,0 -50,5 -50,10c0,6 -47,10 -120,10c-73,0 -120,-4 -120,-10z"></path><path d="M1420,1910c0,-5 -9,-10 -20,-10c-11,0 -20,-4 -20,-10c0,-5 -7,-10 -15,-10c-19,0 -65,-44 -65,-61c0,-6 -8,-19 -17,-28c-10,-9 -20,-27 -21,-41c-2,-14 -8,-26 -13,-28c-5,-2 -9,-26 -9,-53c0,-27 -4,-49 -10,-49c-5,0 -10,-22 -10,-50c0,-27 5,-50 10,-50c6,0 10,-14 10,-30c0,-36 22,-110 32,-110c5,0 8,-7 8,-15c0,-9 16,-32 35,-51c20,-19 33,-39 30,-45c-4,-5 2,-9 11,-9c10,0 15,-3 11,-6c-8,-8 18,-34 33,-34c6,0 8,-4 5,-10c-3,-5 1,-10 10,-10c10,0 13,-5 9,-12c-4,-7 -3,-8 4,-4c6,3 31,-14 56,-39c25,-25 49,-45 54,-45c15,0 102,-87 102,-102c0,-7 9,-20 20,-28c11,-8 20,-22 20,-32c0,-10 5,-18 10,-18c6,0 10,-12 10,-26c0,-14 5,-35 11,-46c9,-16 8,-39 -2,-92c-10,-57 -20,-77 -46,-103c-18,-18 -39,-33 -48,-33c-8,0 -15,-4 -15,-10c0,-6 -27,-10 -60,-10c-33,0 -60,4 -60,10c0,6 -7,10 -15,10c-9,0 -31,16 -50,35c-30,29 -35,41 -35,80c0,25 -4,45 -10,45c-6,0 -10,27 -10,60v60h-70h-70v-90c0,-53 4,-90 10,-90c6,0 10,-15 10,-34c0,-19 5,-38 10,-41c6,-3 10,-15 10,-26c0,-10 5,-19 10,-19c6,0 10,-7 10,-15c0,-20 65,-85 85,-85c8,0 15,-4 15,-10c0,-5 9,-10 20,-10c11,0 20,-4 20,-10c0,-6 50,-10 130,-10c80,0 130,4 130,10c0,6 8,10 18,10c10,0 24,9 32,20c8,11 20,20 28,20c16,0 36,20 40,40c2,8 8,16 13,18c5,2 9,12 9,23c0,10 5,19 10,19c6,0 10,15 10,33c0,24 3,28 10,17c7,-10 10,32 10,128c0,88 -4,142 -10,142c-5,0 -10,9 -10,20c0,11 -4,20 -10,20c-5,0 -10,9 -10,20c0,11 -4,20 -10,20c-5,0 -10,7 -10,15c0,17 -184,205 -200,205c-15,0 -160,147 -160,163c0,7 -9,19 -20,27c-12,8 -20,26 -20,42c0,15 -4,28 -10,28c-6,0 -10,30 -10,70c0,39 4,70 8,70c4,0 9,12 10,28c1,15 7,29 12,30c6,2 10,10 10,19c0,22 26,43 54,43c14,0 26,5 26,10c0,6 23,10 50,10c28,0 50,-4 50,-10c0,-5 9,-10 20,-10c11,0 20,-4 20,-10c0,-5 9,-10 20,-10c13,0 20,-7 20,-19c0,-11 4,-21 10,-23c5,-1 11,-15 12,-30c1,-16 6,-28 10,-28c4,0 8,-27 8,-60v-60h70h70v90c0,53 -4,90 -10,90c-5,0 -10,14 -10,30c0,17 -4,30 -10,30c-5,0 -10,7 -10,15c0,26 -107,125 -135,125c-14,0 -25,5 -25,10c0,6 -47,10 -120,10c-73,0 -120,-4 -120,-10z"></path><path d="M2640,1190v-730h70h70v316c0,260 3,318 14,330c12,11 50,14 179,14c141,0 166,-2 171,-16c3,-9 6,-150 6,-314c0,-164 3,-305 6,-314c5,-12 21,-16 75,-16h69v730v730h-69c-54,0 -70,-4 -75,-16c-3,-9 -6,-150 -6,-314c0,-164 -3,-305 -6,-314c-5,-14 -30,-16 -171,-16c-129,0 -167,3 -179,14c-11,12 -14,70 -14,330v316h-70h-70z"></path><path d="M4333,1905c-7,-8 -13,-35 -13,-60c0,-25 -4,-45 -9,-45c-5,0 -12,-24 -15,-52c-11,-107 -18,-148 -25,-148c-4,0 -9,-26 -10,-57c-1,-32 -6,-60 -10,-63c-4,-3 -8,-25 -10,-50c-2,-25 -6,-47 -10,-50c-4,-3 -8,-25 -10,-50c-2,-25 -6,-47 -10,-50c-4,-3 -8,-25 -10,-50c-2,-25 -7,-52 -12,-62c-5,-9 -9,-33 -9,-52c0,-20 -4,-36 -8,-36c-5,0 -10,-26 -11,-57c-1,-32 -6,-59 -12,-61c-5,-2 -9,-26 -9,-53c0,-27 -4,-49 -9,-49c-5,0 -12,-24 -15,-52c-12,-111 -18,-148 -27,-148c-5,0 -9,-27 -9,-60c0,-33 -4,-60 -10,-60c-5,0 -10,-18 -10,-40v-40h70h70v30c0,17 5,30 10,30c6,0 10,27 10,60c0,33 4,60 10,60c6,0 10,16 10,36c0,61 9,64 200,64c132,0 175,-3 185,-14c8,-7 15,-38 16,-70c1,-31 6,-56 11,-56c4,0 8,-18 8,-40c0,-22 5,-40 10,-40c6,0 10,-13 10,-30v-30h70h70v70c0,40 -4,70 -10,70c-5,0 -10,23 -10,50c0,28 -4,50 -10,50c-6,0 -10,28 -10,63c0,44 -3,58 -10,47c-7,-11 -10,0 -10,38c0,28 -4,52 -10,52c-6,0 -10,27 -10,60c0,33 -4,60 -10,60c-5,0 -10,23 -10,50c0,28 -4,50 -10,50c-5,0 -10,23 -10,50c0,28 -4,50 -10,50c-6,0 -10,27 -10,60c0,33 -4,60 -10,60c-5,0 -10,18 -10,40c0,22 -4,40 -10,40c-6,0 -10,27 -10,60c0,33 -4,60 -10,60c-5,0 -10,23 -10,50c0,28 -4,50 -10,50c-6,0 -10,28 -10,63c0,44 -3,58 -10,47c-7,-11 -10,3 -10,47c0,34 -4,63 -10,65c-5,2 -11,15 -12,31l-2,27h-106c-78,-1 -108,-4 -117,-15zM4446,1666c8,-8 14,-34 14,-60c0,-25 5,-46 10,-46c6,0 10,-22 10,-50c0,-27 5,-50 10,-50c6,0 10,-22 10,-50c0,-27 5,-50 10,-50c6,0 10,-22 10,-50c0,-27 5,-50 10,-50c6,0 10,-22 10,-49c0,-28 5,-53 10,-56c6,-3 10,-26 10,-51c0,-24 4,-44 9,-44c5,0 11,-24 14,-52c3,-29 8,-65 12,-80l7,-28h-161h-161v40c0,22 5,40 10,40c6,0 10,23 10,50c0,28 5,50 10,50c6,0 10,27 10,60c0,33 4,60 10,60c6,0 10,18 10,40c0,22 5,40 10,40c6,0 10,27 10,60c0,33 4,60 10,60c6,0 10,23 10,50c0,28 5,50 10,50c6,0 10,23 10,50c0,28 5,50 10,50c6,0 10,18 10,40c0,43 4,47 26,26z"></path><path d="M5592,1905c-10,-11 -12,-167 -12,-730l1,-715h79h80v310v310h90c53,0 90,-4 90,-10c0,-5 14,-10 30,-10c17,0 30,-4 30,-10c0,-5 7,-10 16,-10c20,0 44,-24 44,-43c0,-9 4,-17 10,-19c5,-2 12,-55 15,-118c15,-351 17,-373 30,-386c9,-9 37,-14 79,-14h66v51c0,31 -4,48 -10,44c-7,-4 -10,70 -10,214c0,141 -4,221 -10,221c-5,0 -10,11 -10,25c0,14 -4,25 -10,25c-5,0 -10,7 -10,15c0,20 -45,65 -65,65c-8,0 -15,5 -15,10c0,6 -9,10 -20,10c-13,0 -20,7 -20,20c0,13 7,20 20,20c11,0 20,5 20,10c0,6 7,10 15,10c20,0 65,45 65,65c0,8 5,15 10,15c6,0 10,14 10,30c0,17 5,30 10,30c6,0 10,67 10,180c0,113 -4,180 -10,180c-5,0 -10,14 -10,30c0,17 -4,30 -10,30c-5,0 -10,7 -10,15c0,20 -85,105 -105,105c-8,0 -15,5 -15,10c0,6 -22,10 -50,10c-27,0 -50,5 -50,10c0,6 -66,10 -177,10c-142,-1 -181,-4 -191,-15zM5980,1750c0,-5 7,-10 16,-10c20,0 44,-24 44,-43c0,-9 6,-17 13,-19c9,-4 12,-48 12,-178c0,-130 -3,-174 -12,-177c-7,-3 -13,-11 -13,-20c0,-18 -17,-34 -55,-52c-16,-7 -38,-17 -47,-22c-10,-5 -58,-9 -108,-9h-90v270v270h120c73,0 120,-4 120,-10z"></path><path d="M7020,1190v-730h66c43,0 70,5 80,14c11,12 14,61 14,260c0,157 4,246 10,246c6,0 10,8 10,18c0,10 9,24 20,32c11,8 20,22 20,32c0,11 7,18 20,18c13,0 20,-7 20,-20c0,-11 5,-20 10,-20c6,0 10,-9 10,-20c0,-11 5,-20 10,-20c6,0 10,-9 10,-20c0,-11 5,-20 10,-20c6,0 10,-9 10,-20c0,-11 5,-20 10,-20c6,0 10,-9 10,-20c0,-11 5,-20 10,-20c6,0 10,-9 10,-20c0,-11 5,-20 10,-20c6,0 10,-9 10,-20c0,-11 5,-20 10,-20c6,0 10,-9 10,-20c0,-11 5,-20 10,-20c6,0 10,-9 10,-20c0,-11 5,-20 10,-20c6,0 10,-9 10,-20c0,-11 5,-20 10,-20c6,0 10,-13 10,-30c0,-16 5,-30 10,-30c6,0 10,-9 10,-20c0,-11 5,-20 10,-20c6,0 10,-9 10,-20c0,-11 5,-20 10,-20c6,0 10,-7 10,-15c0,-9 11,-27 25,-40c21,-22 33,-25 90,-25c58,0 65,2 65,20c0,11 -4,20 -10,20c-5,0 -10,9 -10,19c0,11 -4,21 -10,23c-5,2 -11,15 -12,30c-1,15 -6,24 -10,22c-4,-3 -8,6 -8,20c0,14 -4,26 -10,26c-5,0 -10,9 -10,20c0,11 -4,20 -10,20c-5,0 -10,9 -10,20c0,11 -4,20 -10,20c-5,0 -10,9 -10,20c0,11 -4,20 -10,20c-5,0 -10,9 -10,20c0,11 -4,20 -10,20c-5,0 -10,9 -10,20c0,11 -4,20 -10,20c-5,0 -10,9 -10,20c0,11 -4,20 -10,20c-5,0 -10,9 -10,20c0,11 -4,20 -10,20c-5,0 -10,9 -10,20c0,11 -4,20 -10,20c-5,0 -10,9 -10,19c0,11 -4,21 -10,23c-5,2 -11,15 -12,30c-1,15 -6,24 -10,22c-4,-3 -8,6 -8,20c0,14 -4,26 -10,26c-5,0 -10,9 -10,20c0,11 -4,20 -10,20c-5,0 -10,9 -10,20c0,11 -4,20 -10,20c-5,0 -10,9 -10,20c0,11 -4,20 -10,20c-5,0 -10,14 -10,30c0,17 5,30 10,30c6,0 10,9 10,20c0,11 5,20 10,20c6,0 10,8 10,18c0,10 9,24 20,32c11,8 20,22 20,32c0,10 5,18 10,18c6,0 10,9 10,20c0,11 5,20 10,20c6,0 10,9 10,20c0,11 5,20 10,20c6,0 10,9 10,20c0,11 5,20 10,20c6,0 10,8 10,18c0,10 9,24 20,32c11,8 20,22 20,32c0,10 5,18 10,18c6,0 10,9 10,20c0,11 5,20 10,20c6,0 10,9 10,20c0,11 5,20 10,20c6,0 10,9 10,20c0,11 5,20 10,20c6,0 10,8 10,18c0,10 9,24 20,32c11,8 20,22 20,32c0,10 5,18 10,18c6,0 10,14 10,30v30h-66c-67,0 -94,-13 -94,-44c0,-9 -4,-16 -10,-16c-5,0 -10,-9 -10,-20c0,-11 -4,-20 -10,-20c-5,0 -10,-9 -10,-20c0,-11 -4,-20 -10,-20c-5,0 -10,-9 -10,-20c0,-11 -4,-20 -10,-20c-5,0 -10,-6 -10,-13c0,-7 -9,-23 -20,-35c-11,-12 -20,-28 -20,-37c0,-8 -4,-15 -10,-15c-5,0 -10,-9 -10,-20c0,-11 -4,-20 -10,-20c-5,0 -10,-9 -10,-20c0,-11 -4,-20 -10,-20c-5,0 -10,-9 -10,-20c0,-11 -4,-20 -9,-20c-5,0 -14,-13 -21,-30c-7,-16 -16,-30 -21,-30c-5,0 -9,-9 -9,-20c0,-11 -4,-20 -10,-20c-5,0 -10,-9 -10,-20c0,-11 -4,-20 -10,-20c-5,0 -10,-9 -10,-20c0,-11 -4,-20 -10,-20c-5,0 -10,-9 -10,-20c0,-11 -4,-20 -10,-20c-5,0 -10,-7 -10,-16c0,-15 -23,-44 -34,-44c-3,0 -6,147 -6,326c0,269 -2,328 -14,340c-10,9 -37,14 -80,14h-65z"></path></g></g></g></svg>