<?xml version="1.0" standalone="no"?>
<!DOCTYPE svg PUBLIC "-//W3C//DTD SVG 20010904//EN"
 "http://www.w3.org/TR/2001/REC-SVG-20010904/DTD/svg10.dtd">
<svg version="1.0" xmlns="http://www.w3.org/2000/svg"
 width="872.000000pt" height="644.000000pt" viewBox="0 0 872.000000 644.000000"
 preserveAspectRatio="xMidYMid meet">

<g transform="translate(0.000000,644.000000) scale(0.100000,-0.100000)"
fill="#000000" stroke="none">
<path d="M955 4903 c-188 -59 -277 -170 -309 -386 -24 -159 -24 -1162 0 -1311
35 -219 130 -334 327 -391 47 -14 83 -16 175 -12 181 8 278 54 370 173 18 23
32 45 32 49 0 4 6 21 14 38 36 81 47 168 44 352 l-3 180 -147 3 -148 3 0 -137
c0 -283 -40 -364 -180 -364 -70 0 -115 25 -142 80 l-23 45 -3 623 c-3 645 -2
663 38 718 30 41 62 54 131 54 57 0 71 -4 106 -29 52 -38 63 -77 70 -253 l6
-138 148 0 149 0 0 146 c0 98 -5 168 -16 217 -18 79 -54 163 -85 195 -10 12
-19 26 -19 32 0 5 -3 10 -8 10 -4 0 -18 10 -32 23 -34 32 -83 55 -160 78 -83
24 -261 25 -335 2z"/>
<path d="M2325 4901 c-187 -56 -280 -170 -315 -382 -6 -39 -10 -300 -10 -665
0 -657 3 -695 58 -814 32 -68 122 -160 182 -187 98 -43 172 -56 287 -50 61 3
128 12 153 22 61 22 112 46 126 59 6 6 22 20 35 32 69 60 117 153 140 269 20
99 20 1221 1 1345 -32 200 -131 316 -321 374 -74 22 -255 21 -336 -3z m263
-297 c41 -24 62 -58 73 -118 6 -34 9 -282 7 -658 -3 -601 -3 -603 -25 -648
-30 -61 -65 -80 -148 -80 -59 0 -71 3 -105 30 -25 20 -41 43 -49 72 -9 31 -11
214 -9 678 3 701 1 672 67 717 42 28 147 32 189 7z"/>
<path d="M3407 4893 c-13 -12 -8 -268 5 -281 9 -9 87 -12 290 -12 316 0 295 7
254 -89 -14 -31 -59 -139 -102 -241 -127 -307 -255 -613 -269 -645 -7 -16 -41
-97 -74 -180 -34 -82 -68 -163 -76 -180 -61 -137 -65 -153 -65 -296 0 -116 2
-138 16 -143 20 -8 908 -8 928 0 13 5 16 27 16 134 0 71 -3 135 -6 144 -5 14
-42 16 -305 16 -267 0 -299 2 -299 16 0 9 30 86 66 172 37 87 75 180 86 207
11 28 26 64 33 80 8 17 43 102 80 190 36 88 70 169 75 180 5 11 39 92 75 180
36 88 70 169 75 180 5 11 34 80 65 154 l56 134 -3 141 -3 141 -456 3 c-250 1
-459 -1 -462 -5z"/>
<path d="M4646 4891 c-4 -5 5 -48 19 -95 14 -47 36 -123 49 -168 14 -46 41
-137 60 -203 20 -66 88 -293 153 -505 l117 -385 5 -355 6 -355 150 -3 c132 -2
151 -1 162 15 10 13 13 100 13 359 l0 342 90 304 c50 167 104 346 120 398 101
332 189 643 184 652 -3 4 -70 8 -150 8 -141 0 -145 -1 -153 -22 -5 -13 -39
-138 -76 -278 -134 -511 -160 -603 -170 -607 -6 -1 -25 52 -42 120 -18 67 -67
250 -108 407 -41 157 -81 305 -88 330 l-13 45 -161 3 c-95 1 -164 -1 -167 -7z"/>
<path d="M6131 3546 c-14 -17 -10 -25 28 -66 51 -54 136 -219 156 -302 31
-131 5 -320 -61 -447 -8 -14 -14 -30 -14 -35 0 -12 -162 -257 -218 -329 -24
-32 -40 -62 -36 -67 12 -11 221 -19 694 -26 515 -8 778 10 985 68 92 26 149
64 153 104 7 66 -146 233 -423 464 -55 45 -101 87 -103 91 -2 5 -8 9 -14 9 -6
0 -16 6 -22 14 -17 21 -214 166 -226 166 -5 0 -10 4 -10 8 0 5 -10 14 -22 21
-13 6 -36 20 -53 31 -16 11 -39 24 -50 30 -11 6 -33 19 -50 30 -45 29 -324
167 -375 185 -76 27 -184 52 -257 60 -57 5 -72 4 -82 -9z"/>
<path d="M4365 2694 c-33 -7 -87 -21 -120 -30 -257 -69 -260 -69 -505 -69
l-225 0 -144 38 c-80 20 -147 34 -150 32 -8 -9 21 -32 90 -68 146 -78 306
-117 519 -124 169 -6 219 0 520 57 60 12 251 12 325 0 59 -9 142 -23 320 -55
170 -30 390 -55 495 -55 181 0 490 65 490 102 0 5 -28 5 -62 1 -96 -12 -382
-10 -483 5 -112 15 -125 18 -425 91 -135 33 -281 67 -326 75 -98 19 -237 19
-319 0z"/>
<path d="M8040 2454 c0 -3 7 -12 16 -21 29 -30 14 -74 -41 -115 -58 -44 -107
-64 -265 -108 -63 -18 -126 -35 -139 -39 -14 -4 -26 -12 -28 -18 -5 -13 81 -7
163 13 33 8 69 14 79 14 17 0 60 11 185 48 72 21 155 66 186 99 50 53 17 100
-84 122 -60 12 -72 13 -72 5z"/>
<path d="M4663 2383 c-49 -9 -12 -33 53 -33 37 0 163 -40 243 -76 158 -73 251
-94 408 -94 126 0 214 16 258 46 17 12 3 14 -107 14 -135 0 -183 9 -388 70
-114 34 -192 56 -255 70 -40 9 -171 11 -212 3z"/>
<path d="M910 2218 c-33 -17 -51 -35 -70 -72 -55 -110 -20 -241 89 -334 113
-96 133 -117 152 -153 35 -69 20 -152 -32 -183 -72 -42 -149 6 -149 93 0 61
-9 73 -51 69 -33 -3 -34 -5 -37 -48 -4 -52 12 -113 40 -152 55 -78 225 -84
290 -11 49 55 63 177 29 255 -18 43 -33 60 -173 188 -103 95 -123 177 -62 250
21 24 34 30 64 30 57 0 92 -34 99 -96 l6 -49 43 -3 42 -3 -1 43 c0 63 -29 126
-71 161 -52 42 -143 49 -208 15z"/>
<path d="M1482 1808 l3 -423 40 0 40 0 3 188 2 187 105 0 105 0 2 -187 3 -188
40 0 40 0 3 423 2 423 -42 -3 -43 -3 -3 -187 -2 -188 -105 0 -105 0 -2 188 -3
187 -43 3 -42 3 2 -423z"/>
<path d="M2310 2208 c-5 -13 -19 -75 -30 -138 -11 -63 -25 -135 -30 -160 -5
-25 -25 -130 -45 -235 -20 -104 -40 -209 -46 -232 -14 -51 -7 -63 36 -63 30 0
36 4 41 28 10 46 25 106 30 125 5 15 19 17 109 17 l104 0 10 -37 c5 -21 12
-54 16 -73 4 -19 12 -41 17 -47 10 -13 69 -18 80 -8 3 3 -8 72 -23 153 -16 81
-49 255 -74 387 -63 333 -49 299 -123 303 -57 3 -63 1 -72 -20z m116 -349 c24
-117 44 -215 44 -216 0 -2 -43 -3 -96 -3 -95 0 -96 0 -91 23 3 12 23 111 44
220 20 108 42 196 47 194 5 -2 29 -100 52 -218z"/>
<path d="M2890 1804 l0 -425 43 3 42 3 3 179 2 179 71 -5 c108 -8 113 -15 119
-191 3 -78 9 -148 13 -154 5 -7 26 -13 47 -13 l39 0 -5 128 c-7 194 -10 207
-51 248 l-36 36 28 25 c42 39 55 82 55 180 0 102 -10 147 -42 180 -40 43 -81
53 -209 53 l-119 0 0 -426z m241 323 c9 -7 21 -22 27 -34 15 -27 16 -172 2
-208 -13 -33 -64 -55 -130 -55 l-50 0 0 155 0 155 68 0 c37 0 74 -6 83 -13z"/>
<path d="M3566 2214 c-8 -20 -8 -798 0 -818 8 -22 80 -22 88 0 3 9 6 74 6 145
0 136 13 189 46 189 9 0 43 -59 94 -163 43 -90 85 -169 94 -176 8 -7 30 -11
48 -9 25 2 32 7 30 21 -2 9 -48 109 -102 221 -55 112 -100 210 -100 219 0 8
45 95 100 193 55 99 100 182 100 187 0 4 -19 7 -43 7 l-43 0 -39 -72 c-22 -40
-56 -102 -76 -138 -20 -36 -49 -89 -64 -117 -16 -29 -33 -53 -37 -53 -4 0 -8
78 -8 174 0 96 -3 181 -6 190 -4 11 -19 16 -44 16 -25 0 -40 -5 -44 -16z"/>
</g>
</svg>
