<?xml version="1.0" standalone="no"?>
<!DOCTYPE svg PUBLIC "-//W3C//DTD SVG 20010904//EN"
 "http://www.w3.org/TR/2001/REC-SVG-20010904/DTD/svg10.dtd">
<svg version="1.0" xmlns="http://www.w3.org/2000/svg"
 width="872.000000pt" height="383.000000pt" viewBox="0 0 872.000000 383.000000"
 preserveAspectRatio="xMidYMid meet">

<g transform="translate(0.000000,383.000000) scale(0.100000,-0.100000)"
fill="#000000" stroke="none">
<path d="M970 3611 c-83 -22 -115 -37 -169 -80 -84 -67 -136 -176 -151 -318
-12 -115 -13 -1184 -1 -1288 31 -267 196 -408 476 -408 206 0 350 79 422 233
43 92 56 180 57 375 l1 170 -147 3 -146 3 -4 -188 c-5 -201 -10 -223 -62 -272
-49 -46 -161 -50 -220 -8 -15 11 -37 38 -47 61 -17 39 -19 78 -19 678 0 677
-1 666 49 721 48 53 176 60 232 14 53 -44 63 -79 67 -244 l4 -153 138 0 c111
0 140 3 150 15 15 18 7 257 -11 348 -19 96 -67 186 -132 247 -100 94 -319 135
-487 91z"/>
<path d="M2345 3611 c-189 -51 -298 -173 -324 -365 -15 -105 -15 -1266 0
-1355 30 -185 141 -309 319 -358 71 -20 238 -20 310 0 126 34 225 109 275 207
56 111 58 128 62 741 5 587 -2 763 -33 854 -36 107 -118 201 -214 246 -102 48
-278 61 -395 30z m209 -280 c51 -12 91 -53 107 -109 20 -69 20 -1249 0 -1307
-30 -90 -100 -126 -207 -110 -51 7 -108 56 -122 103 -4 15 -7 317 -7 672 l0
645 23 36 c28 47 44 60 85 69 45 11 76 11 121 1z"/>
<path d="M3412 3463 l3 -138 283 -3 c237 -2 284 -5 288 -17 3 -8 -28 -95 -69
-192 -78 -186 -148 -355 -391 -937 l-146 -350 0 -143 0 -143 470 0 470 0 0
140 0 140 -302 2 -303 3 1 25 c1 21 38 118 74 195 5 11 32 76 61 145 28 69 64
154 79 190 15 36 55 133 89 215 35 83 69 164 76 180 7 17 41 98 75 180 34 83
70 169 81 192 10 24 19 45 19 48 0 2 11 29 25 59 23 50 25 66 25 200 l0 146
-455 0 -456 0 3 -137z"/>
<path d="M4650 3588 c0 -10 36 -134 145 -498 19 -63 84 -282 145 -486 l110
-371 0 -347 0 -346 160 0 160 0 0 349 0 348 65 219 c36 120 79 264 96 319 17
55 38 125 46 155 20 69 60 205 114 380 43 144 68 231 76 268 l5 22 -146 0
c-109 0 -148 -3 -150 -12 -14 -49 -77 -287 -156 -588 -40 -151 -75 -283 -77
-292 -3 -10 -11 -18 -18 -18 -8 0 -16 8 -19 18 -3 9 -30 114 -61 232 -75 283
-144 542 -162 608 l-14 52 -160 0 c-116 0 -159 -3 -159 -12z"/>
<path d="M6130 2248 c1 -7 23 -42 50 -78 56 -72 112 -181 137 -262 23 -78 20
-236 -6 -325 -49 -166 -79 -221 -239 -446 -46 -65 -82 -121 -79 -123 5 -5 325
-19 687 -30 208 -7 740 17 805 36 17 4 52 11 80 14 89 11 197 52 232 88 24 25
25 29 13 60 -30 73 -176 229 -365 388 -27 23 -61 52 -75 64 -14 11 -48 39 -75
61 -28 21 -52 42 -55 45 -13 15 -212 160 -268 196 -35 21 -75 47 -90 56 -114
72 -357 189 -457 221 -137 44 -295 63 -295 35z"/>
<path d="M4395 1403 c-16 -3 -107 -24 -201 -48 -94 -24 -208 -49 -255 -54
-184 -24 -400 -9 -588 40 -62 16 -116 28 -118 25 -14 -14 162 -99 270 -130
166 -48 442 -66 592 -37 39 7 102 19 140 26 203 39 327 43 493 14 114 -20 220
-39 367 -65 132 -24 176 -27 375 -27 199 -1 236 2 315 21 198 48 195 51 -54
52 -123 0 -253 5 -290 11 -158 26 -240 43 -466 99 -132 32 -269 64 -305 69
-63 11 -215 12 -275 4z"/>
<path d="M8065 1136 c17 -25 17 -30 2 -61 -25 -53 -112 -104 -237 -139 -158
-44 -234 -69 -222 -73 23 -8 243 35 377 74 150 43 249 115 229 166 -7 20 -69
47 -121 54 l-45 6 17 -27z"/>
<path d="M4705 1093 c-53 -8 -48 -20 12 -28 55 -6 125 -25 168 -45 195 -90
347 -130 490 -130 77 0 200 22 218 39 4 5 -47 11 -115 14 -114 7 -161 16 -313
61 -249 74 -385 101 -460 89z"/>
<path d="M970 939 c-91 -17 -135 -64 -146 -160 -7 -59 10 -159 27 -159 5 0 9
-6 9 -14 0 -8 30 -41 66 -73 157 -137 174 -162 174 -248 0 -49 -4 -60 -29 -86
-24 -23 -38 -29 -75 -29 -60 0 -92 31 -101 97 -9 70 -11 73 -44 73 -38 0 -44
-19 -30 -92 21 -106 80 -158 179 -158 89 0 146 41 174 124 21 65 20 94 -5 161
-21 57 -51 91 -162 189 -78 67 -107 116 -107 181 0 42 19 89 45 107 5 4 33 8
61 8 63 0 89 -24 99 -92 7 -47 8 -48 41 -48 45 0 50 15 29 87 -30 104 -104
151 -205 132z"/>
<path d="M1485 918 c-3 -13 -4 -201 -3 -418 l3 -395 37 -3 38 -3 2 183 3 183
113 3 112 3 0 -186 0 -185 40 0 40 0 0 409 c0 441 0 437 -52 429 -23 -3 -23
-3 -26 -189 l-2 -187 -31 -6 c-44 -9 -172 -7 -186 2 -9 6 -13 60 -15 192 l-3
185 -32 3 c-27 3 -33 -1 -38 -20z"/>
<path d="M2311 903 c-5 -21 -19 -90 -31 -153 -11 -63 -25 -135 -30 -160 -5
-25 -14 -72 -20 -105 -6 -33 -17 -91 -25 -130 -24 -124 -45 -240 -45 -247 0
-5 15 -8 33 -8 l34 0 17 80 17 80 114 0 c130 0 113 13 135 -103 l11 -57 40 0
c21 0 39 1 39 3 0 1 -21 108 -45 237 -25 129 -59 307 -76 395 -39 212 -36 205
-103 205 l-55 0 -10 -37z m117 -317 c24 -119 41 -223 38 -231 -4 -12 -25 -15
-88 -15 -46 0 -88 4 -94 8 -8 5 -4 48 17 152 54 278 62 311 73 307 6 -2 31
-101 54 -221z"/>
<path d="M2903 933 c-10 -4 -13 -97 -13 -419 l0 -414 40 0 40 0 0 164 c0 90 3
171 6 180 8 22 92 21 137 0 54 -26 67 -65 67 -199 0 -62 3 -120 6 -129 4 -11
19 -16 43 -16 l36 0 -6 150 c-7 163 -13 180 -73 232 l-31 26 25 12 c51 24 65
56 68 168 2 57 1 119 -2 137 -10 50 -57 90 -123 104 -56 11 -197 14 -220 4z
m221 -88 c40 -19 56 -60 56 -147 0 -118 -28 -155 -126 -165 -83 -9 -84 -6 -84
167 0 80 3 150 7 153 12 13 115 7 147 -8z"/>
<path d="M3577 933 c-4 -3 -7 -192 -7 -420 l0 -413 39 0 40 0 3 148 c3 135 5
150 26 180 17 23 27 30 36 23 7 -6 50 -87 96 -181 l84 -170 38 0 c21 0 38 2
38 5 0 3 -47 102 -105 221 -58 119 -105 221 -105 226 0 5 45 91 100 189 55 99
98 184 95 190 -10 15 -51 10 -67 -8 -14 -16 -29 -42 -106 -183 -13 -25 -39
-70 -56 -100 -17 -30 -35 -63 -41 -74 -24 -46 -30 -16 -33 163 -1 115 -7 189
-13 198 -12 14 -51 18 -62 6z"/>
</g>
</svg>
