<svg version="1.1" xmlns="http://www.w3.org/2000/svg" xmlns:xlink="http://www.w3.org/1999/xlink" width="872.000000pt" height="644.000000pt" viewBox="0,0,255.98738,189.06248"><g fill="#ffffff" fill-rule="nonzero" stroke="none" stroke-width="1" stroke-linecap="butt" stroke-linejoin="miter" stroke-miterlimit="10" stroke-dasharray="" stroke-dashoffset="0" font-family="none" font-weight="none" font-size="none" text-anchor="none" style="mix-blend-mode: normal"><g transform="translate(-1.87079,-2.12229) scale(0.29358,0.29358)"><g transform="translate(0,644) scale(0.1,-0.1)"><path d="M955,4903c-188,-59 -277,-170 -309,-386c-24,-159 -24,-1162 0,-1311c35,-219 130,-334 327,-391c47,-14 83,-16 175,-12c181,8 278,54 370,173c18,23 32,45 32,49c0,4 6,21 14,38c36,81 47,168 44,352l-3,180l-147,3l-148,3v-137c0,-283 -40,-364 -180,-364c-70,0 -115,25 -142,80l-23,45l-3,623c-3,645 -2,663 38,718c30,41 62,54 131,54c57,0 71,-4 106,-29c52,-38 63,-77 70,-253l6,-138h148h149v146c0,98 -5,168 -16,217c-18,79 -54,163 -85,195c-10,12 -19,26 -19,32c0,5 -3,10 -8,10c-4,0 -18,10 -32,23c-34,32 -83,55 -160,78c-83,24 -261,25 -335,2z"></path><path d="M2325,4901c-187,-56 -280,-170 -315,-382c-6,-39 -10,-300 -10,-665c0,-657 3,-695 58,-814c32,-68 122,-160 182,-187c98,-43 172,-56 287,-50c61,3 128,12 153,22c61,22 112,46 126,59c6,6 22,20 35,32c69,60 117,153 140,269c20,99 20,1221 1,1345c-32,200 -131,316 -321,374c-74,22 -255,21 -336,-3zM2588,4604c41,-24 62,-58 73,-118c6,-34 9,-282 7,-658c-3,-601 -3,-603 -25,-648c-30,-61 -65,-80 -148,-80c-59,0 -71,3 -105,30c-25,20 -41,43 -49,72c-9,31 -11,214 -9,678c3,701 1,672 67,717c42,28 147,32 189,7z"></path><path d="M3407,4893c-13,-12 -8,-268 5,-281c9,-9 87,-12 290,-12c316,0 295,7 254,-89c-14,-31 -59,-139 -102,-241c-127,-307 -255,-613 -269,-645c-7,-16 -41,-97 -74,-180c-34,-82 -68,-163 -76,-180c-61,-137 -65,-153 -65,-296c0,-116 2,-138 16,-143c20,-8 908,-8 928,0c13,5 16,27 16,134c0,71 -3,135 -6,144c-5,14 -42,16 -305,16c-267,0 -299,2 -299,16c0,9 30,86 66,172c37,87 75,180 86,207c11,28 26,64 33,80c8,17 43,102 80,190c36,88 70,169 75,180c5,11 39,92 75,180c36,88 70,169 75,180c5,11 34,80 65,154l56,134l-3,141l-3,141l-456,3c-250,1 -459,-1 -462,-5z"></path><path d="M4646,4891c-4,-5 5,-48 19,-95c14,-47 36,-123 49,-168c14,-46 41,-137 60,-203c20,-66 88,-293 153,-505l117,-385l5,-355l6,-355l150,-3c132,-2 151,-1 162,15c10,13 13,100 13,359v342l90,304c50,167 104,346 120,398c101,332 189,643 184,652c-3,4 -70,8 -150,8c-141,0 -145,-1 -153,-22c-5,-13 -39,-138 -76,-278c-134,-511 -160,-603 -170,-607c-6,-1 -25,52 -42,120c-18,67 -67,250 -108,407c-41,157 -81,305 -88,330l-13,45l-161,3c-95,1 -164,-1 -167,-7z"></path><path d="M6131,3546c-14,-17 -10,-25 28,-66c51,-54 136,-219 156,-302c31,-131 5,-320 -61,-447c-8,-14 -14,-30 -14,-35c0,-12 -162,-257 -218,-329c-24,-32 -40,-62 -36,-67c12,-11 221,-19 694,-26c515,-8 778,10 985,68c92,26 149,64 153,104c7,66 -146,233 -423,464c-55,45 -101,87 -103,91c-2,5 -8,9 -14,9c-6,0 -16,6 -22,14c-17,21 -214,166 -226,166c-5,0 -10,4 -10,8c0,5 -10,14 -22,21c-13,6 -36,20 -53,31c-16,11 -39,24 -50,30c-11,6 -33,19 -50,30c-45,29 -324,167 -375,185c-76,27 -184,52 -257,60c-57,5 -72,4 -82,-9z"></path><path d="M4365,2694c-33,-7 -87,-21 -120,-30c-257,-69 -260,-69 -505,-69h-225l-144,38c-80,20 -147,34 -150,32c-8,-9 21,-32 90,-68c146,-78 306,-117 519,-124c169,-6 219,0 520,57c60,12 251,12 325,0c59,-9 142,-23 320,-55c170,-30 390,-55 495,-55c181,0 490,65 490,102c0,5 -28,5 -62,1c-96,-12 -382,-10 -483,5c-112,15 -125,18 -425,91c-135,33 -281,67 -326,75c-98,19 -237,19 -319,0z"></path><path d="M8040,2454c0,-3 7,-12 16,-21c29,-30 14,-74 -41,-115c-58,-44 -107,-64 -265,-108c-63,-18 -126,-35 -139,-39c-14,-4 -26,-12 -28,-18c-5,-13 81,-7 163,13c33,8 69,14 79,14c17,0 60,11 185,48c72,21 155,66 186,99c50,53 17,100 -84,122c-60,12 -72,13 -72,5z"></path><path d="M4663,2383c-49,-9 -12,-33 53,-33c37,0 163,-40 243,-76c158,-73 251,-94 408,-94c126,0 214,16 258,46c17,12 3,14 -107,14c-135,0 -183,9 -388,70c-114,34 -192,56 -255,70c-40,9 -171,11 -212,3z"></path><path d="M910,2218c-33,-17 -51,-35 -70,-72c-55,-110 -20,-241 89,-334c113,-96 133,-117 152,-153c35,-69 20,-152 -32,-183c-72,-42 -149,6 -149,93c0,61 -9,73 -51,69c-33,-3 -34,-5 -37,-48c-4,-52 12,-113 40,-152c55,-78 225,-84 290,-11c49,55 63,177 29,255c-18,43 -33,60 -173,188c-103,95 -123,177 -62,250c21,24 34,30 64,30c57,0 92,-34 99,-96l6,-49l43,-3l42,-3l-1,43c0,63 -29,126 -71,161c-52,42 -143,49 -208,15z"></path><path d="M1482,1808l3,-423h40h40l3,188l2,187h105h105l2,-187l3,-188h40h40l3,423l2,423l-42,-3l-43,-3l-3,-187l-2,-188h-105h-105l-2,188l-3,187l-43,3l-42,3z"></path><path d="M2310,2208c-5,-13 -19,-75 -30,-138c-11,-63 -25,-135 -30,-160c-5,-25 -25,-130 -45,-235c-20,-104 -40,-209 -46,-232c-14,-51 -7,-63 36,-63c30,0 36,4 41,28c10,46 25,106 30,125c5,15 19,17 109,17h104l10,-37c5,-21 12,-54 16,-73c4,-19 12,-41 17,-47c10,-13 69,-18 80,-8c3,3 -8,72 -23,153c-16,81 -49,255 -74,387c-63,333 -49,299 -123,303c-57,3 -63,1 -72,-20zM2426,1859c24,-117 44,-215 44,-216c0,-2 -43,-3 -96,-3c-95,0 -96,0 -91,23c3,12 23,111 44,220c20,108 42,196 47,194c5,-2 29,-100 52,-218z"></path><path d="M2890,1804v-425l43,3l42,3l3,179l2,179l71,-5c108,-8 113,-15 119,-191c3,-78 9,-148 13,-154c5,-7 26,-13 47,-13h39l-5,128c-7,194 -10,207 -51,248l-36,36l28,25c42,39 55,82 55,180c0,102 -10,147 -42,180c-40,43 -81,53 -209,53h-119zM3131,2127c9,-7 21,-22 27,-34c15,-27 16,-172 2,-208c-13,-33 -64,-55 -130,-55h-50v155v155h68c37,0 74,-6 83,-13z"></path><path d="M3566,2214c-8,-20 -8,-798 0,-818c8,-22 80,-22 88,0c3,9 6,74 6,145c0,136 13,189 46,189c9,0 43,-59 94,-163c43,-90 85,-169 94,-176c8,-7 30,-11 48,-9c25,2 32,7 30,21c-2,9 -48,109 -102,221c-55,112 -100,210 -100,219c0,8 45,95 100,193c55,99 100,182 100,187c0,4 -19,7 -43,7h-43l-39,-72c-22,-40 -56,-102 -76,-138c-20,-36 -49,-89 -64,-117c-16,-29 -33,-53 -37,-53c-4,0 -8,78 -8,174c0,96 -3,181 -6,190c-4,11 -19,16 -44,16c-25,0 -40,-5 -44,-16z"></path></g></g></g></svg>