<svg version="1.1" xmlns="http://www.w3.org/2000/svg" xmlns:xlink="http://www.w3.org/1999/xlink" width="872.000000pt" height="383.000000pt" viewBox="0,0,255.98738,112.43434"><g fill="#00ffff" fill-rule="nonzero" stroke="none" stroke-width="1" stroke-linecap="butt" stroke-linejoin="miter" stroke-miterlimit="10" stroke-dasharray="" stroke-dashoffset="0" font-family="none" font-weight="none" font-size="none" text-anchor="none" style="mix-blend-mode: normal"><g transform="translate(-2.01801,-1.63704) scale(0.29358,0.29358)"><g transform="translate(0,383) scale(0.1,-0.1)"><path d="M970,3611c-83,-22 -115,-37 -169,-80c-84,-67 -136,-176 -151,-318c-12,-115 -13,-1184 -1,-1288c31,-267 196,-408 476,-408c206,0 350,79 422,233c43,92 56,180 57,375l1,170l-147,3l-146,3l-4,-188c-5,-201 -10,-223 -62,-272c-49,-46 -161,-50 -220,-8c-15,11 -37,38 -47,61c-17,39 -19,78 -19,678c0,677 -1,666 49,721c48,53 176,60 232,14c53,-44 63,-79 67,-244l4,-153h138c111,0 140,3 150,15c15,18 7,257 -11,348c-19,96 -67,186 -132,247c-100,94 -319,135 -487,91z"></path><path d="M2345,3611c-189,-51 -298,-173 -324,-365c-15,-105 -15,-1266 0,-1355c30,-185 141,-309 319,-358c71,-20 238,-20 310,0c126,34 225,109 275,207c56,111 58,128 62,741c5,587 -2,763 -33,854c-36,107 -118,201 -214,246c-102,48 -278,61 -395,30zM2554,3331c51,-12 91,-53 107,-109c20,-69 20,-1249 0,-1307c-30,-90 -100,-126 -207,-110c-51,7 -108,56 -122,103c-4,15 -7,317 -7,672v645l23,36c28,47 44,60 85,69c45,11 76,11 121,1z"></path><path d="M3412,3463l3,-138l283,-3c237,-2 284,-5 288,-17c3,-8 -28,-95 -69,-192c-78,-186 -148,-355 -391,-937l-146,-350v-143v-143h470h470v140v140l-302,2l-303,3l1,25c1,21 38,118 74,195c5,11 32,76 61,145c28,69 64,154 79,190c15,36 55,133 89,215c35,83 69,164 76,180c7,17 41,98 75,180c34,83 70,169 81,192c10,24 19,45 19,48c0,2 11,29 25,59c23,50 25,66 25,200v146h-455h-456z"></path><path d="M4650,3588c0,-10 36,-134 145,-498c19,-63 84,-282 145,-486l110,-371v-347v-346h160h160v349v348l65,219c36,120 79,264 96,319c17,55 38,125 46,155c20,69 60,205 114,380c43,144 68,231 76,268l5,22h-146c-109,0 -148,-3 -150,-12c-14,-49 -77,-287 -156,-588c-40,-151 -75,-283 -77,-292c-3,-10 -11,-18 -18,-18c-8,0 -16,8 -19,18c-3,9 -30,114 -61,232c-75,283 -144,542 -162,608l-14,52h-160c-116,0 -159,-3 -159,-12z"></path><path d="M6130,2248c1,-7 23,-42 50,-78c56,-72 112,-181 137,-262c23,-78 20,-236 -6,-325c-49,-166 -79,-221 -239,-446c-46,-65 -82,-121 -79,-123c5,-5 325,-19 687,-30c208,-7 740,17 805,36c17,4 52,11 80,14c89,11 197,52 232,88c24,25 25,29 13,60c-30,73 -176,229 -365,388c-27,23 -61,52 -75,64c-14,11 -48,39 -75,61c-28,21 -52,42 -55,45c-13,15 -212,160 -268,196c-35,21 -75,47 -90,56c-114,72 -357,189 -457,221c-137,44 -295,63 -295,35z"></path><path d="M4395,1403c-16,-3 -107,-24 -201,-48c-94,-24 -208,-49 -255,-54c-184,-24 -400,-9 -588,40c-62,16 -116,28 -118,25c-14,-14 162,-99 270,-130c166,-48 442,-66 592,-37c39,7 102,19 140,26c203,39 327,43 493,14c114,-20 220,-39 367,-65c132,-24 176,-27 375,-27c199,-1 236,2 315,21c198,48 195,51 -54,52c-123,0 -253,5 -290,11c-158,26 -240,43 -466,99c-132,32 -269,64 -305,69c-63,11 -215,12 -275,4z"></path><path d="M8065,1136c17,-25 17,-30 2,-61c-25,-53 -112,-104 -237,-139c-158,-44 -234,-69 -222,-73c23,-8 243,35 377,74c150,43 249,115 229,166c-7,20 -69,47 -121,54l-45,6z"></path><path d="M4705,1093c-53,-8 -48,-20 12,-28c55,-6 125,-25 168,-45c195,-90 347,-130 490,-130c77,0 200,22 218,39c4,5 -47,11 -115,14c-114,7 -161,16 -313,61c-249,74 -385,101 -460,89z"></path><path d="M970,939c-91,-17 -135,-64 -146,-160c-7,-59 10,-159 27,-159c5,0 9,-6 9,-14c0,-8 30,-41 66,-73c157,-137 174,-162 174,-248c0,-49 -4,-60 -29,-86c-24,-23 -38,-29 -75,-29c-60,0 -92,31 -101,97c-9,70 -11,73 -44,73c-38,0 -44,-19 -30,-92c21,-106 80,-158 179,-158c89,0 146,41 174,124c21,65 20,94 -5,161c-21,57 -51,91 -162,189c-78,67 -107,116 -107,181c0,42 19,89 45,107c5,4 33,8 61,8c63,0 89,-24 99,-92c7,-47 8,-48 41,-48c45,0 50,15 29,87c-30,104 -104,151 -205,132z"></path><path d="M1485,918c-3,-13 -4,-201 -3,-418l3,-395l37,-3l38,-3l2,183l3,183l113,3l112,3v-186v-185h40h40v409c0,441 0,437 -52,429c-23,-3 -23,-3 -26,-189l-2,-187l-31,-6c-44,-9 -172,-7 -186,2c-9,6 -13,60 -15,192l-3,185l-32,3c-27,3 -33,-1 -38,-20z"></path><path d="M2311,903c-5,-21 -19,-90 -31,-153c-11,-63 -25,-135 -30,-160c-5,-25 -14,-72 -20,-105c-6,-33 -17,-91 -25,-130c-24,-124 -45,-240 -45,-247c0,-5 15,-8 33,-8h34l17,80l17,80h114c130,0 113,13 135,-103l11,-57h40c21,0 39,1 39,3c0,1 -21,108 -45,237c-25,129 -59,307 -76,395c-39,212 -36,205 -103,205h-55zM2428,586c24,-119 41,-223 38,-231c-4,-12 -25,-15 -88,-15c-46,0 -88,4 -94,8c-8,5 -4,48 17,152c54,278 62,311 73,307c6,-2 31,-101 54,-221z"></path><path d="M2903,933c-10,-4 -13,-97 -13,-419v-414h40h40v164c0,90 3,171 6,180c8,22 92,21 137,0c54,-26 67,-65 67,-199c0,-62 3,-120 6,-129c4,-11 19,-16 43,-16h36l-6,150c-7,163 -13,180 -73,232l-31,26l25,12c51,24 65,56 68,168c2,57 1,119 -2,137c-10,50 -57,90 -123,104c-56,11 -197,14 -220,4zM3124,845c40,-19 56,-60 56,-147c0,-118 -28,-155 -126,-165c-83,-9 -84,-6 -84,167c0,80 3,150 7,153c12,13 115,7 147,-8z"></path><path d="M3577,933c-4,-3 -7,-192 -7,-420v-413h39h40l3,148c3,135 5,150 26,180c17,23 27,30 36,23c7,-6 50,-87 96,-181l84,-170h38c21,0 38,2 38,5c0,3 -47,102 -105,221c-58,119 -105,221 -105,226c0,5 45,91 100,189c55,99 98,184 95,190c-10,15 -51,10 -67,-8c-14,-16 -29,-42 -106,-183c-13,-25 -39,-70 -56,-100c-17,-30 -35,-63 -41,-74c-24,-46 -30,-16 -33,163c-1,115 -7,189 -13,198c-12,14 -51,18 -62,6z"></path></g></g></g></svg>